<svg width="616.7" height="139.502" viewBox="0 0 616.7 139.502" xmlns="http://www.w3.org/2000/svg"><g id="svgGroup" stroke-linecap="round" fill-rule="evenodd" font-size="9pt" stroke="#000" stroke-width="0.25mm" fill="white" style="stroke:#e5e5e5;stroke-width:0.25mm;fill:white"><path d="M 116.5 37.002 L 110.4 65.602 Q 109.635 69.43 109.455 72.437 A 29.663 29.663 0 0 0 109.4 74.202 A 14.478 14.478 0 0 0 109.572 76.51 Q 109.979 79.025 111.35 80.502 A 6.381 6.381 0 0 0 114.764 82.396 A 9.57 9.57 0 0 0 116.8 82.602 A 10.378 10.378 0 0 0 121.367 81.514 A 13.792 13.792 0 0 0 123.25 80.402 Q 126.096 78.414 129.879 74.061 A 84.227 84.227 0 0 0 130.7 73.102 A 4.764 4.764 0 0 1 131.54 72.319 A 3.137 3.137 0 0 1 133.4 71.702 A 2.225 2.225 0 0 1 135.15 72.494 A 3.165 3.165 0 0 1 135.45 72.902 A 4.376 4.376 0 0 1 135.943 74.05 Q 136.2 74.971 136.2 76.202 Q 136.2 80.102 134.3 82.402 A 53.024 53.024 0 0 1 130.414 86.648 Q 127.188 89.789 124 91.602 Q 118.9 94.502 113.3 94.502 A 23.026 23.026 0 0 1 107.781 93.877 A 15.644 15.644 0 0 1 100 89.452 A 16.98 16.98 0 0 1 95.723 81.137 A 24.864 24.864 0 0 1 95.2 75.902 A 41.494 41.494 0 0 1 95.39 72.164 Q 95.761 68.097 96.86 62.425 A 186.676 186.676 0 0 1 97.6 58.802 L 101.6 40.502 Q 101.765 39.761 102.133 38.071 A 2212.332 2212.332 0 0 0 102.3 37.302 A 69.311 69.311 0 0 0 102.847 34.524 A 57.189 57.189 0 0 0 103.1 32.952 Q 103.4 30.902 103.4 28.902 A 14.478 14.478 0 0 0 103.281 26.978 Q 102.999 24.882 102.05 23.652 A 4.392 4.392 0 0 0 98.953 21.944 A 6.435 6.435 0 0 0 98.2 21.902 A 8.608 8.608 0 0 0 94.326 22.89 Q 91.418 24.348 88.35 27.952 A 31.715 31.715 0 0 0 85.219 32.443 Q 82.327 37.366 79.602 44.954 A 134.051 134.051 0 0 0 78.55 48.002 A 131.241 131.241 0 0 0 75.434 59.149 Q 74.146 64.6 73.038 70.913 A 303.561 303.561 0 0 0 71 84.402 Q 70.478 88.874 69.373 91.152 A 6.09 6.09 0 0 1 68.55 92.452 Q 67.128 94.117 64.287 94.429 A 12.707 12.707 0 0 1 62.9 94.502 A 11.468 11.468 0 0 1 61.134 94.375 Q 59.064 94.052 57.95 92.902 Q 56.632 91.541 56.435 88.155 A 21.597 21.597 0 0 1 56.4 86.902 Q 56.4 82.989 57.402 76.753 A 132.113 132.113 0 0 1 57.5 76.152 Q 58.6 69.502 60.3 60.502 A 751.678 751.678 0 0 0 61.863 52.031 Q 64.9 34.989 64.9 29.302 A 15.886 15.886 0 0 0 64.785 27.322 Q 64.492 24.995 63.45 23.702 A 4.645 4.645 0 0 0 60.85 22.096 Q 60.053 21.902 59.1 21.902 A 9.94 9.94 0 0 0 54.755 22.964 Q 53.208 23.711 51.631 24.983 A 26.073 26.073 0 0 0 49 27.452 A 27.166 27.166 0 0 0 45.935 31.505 Q 43.175 35.867 40.488 42.721 A 127.614 127.614 0 0 0 38.85 47.152 Q 34.12 60.675 30.896 83.285 A 386.167 386.167 0 0 0 30.6 85.402 Q 30.056 89.364 29.12 91.455 A 6.944 6.944 0 0 1 28.55 92.502 Q 27.223 94.468 23.429 94.501 A 14.959 14.959 0 0 1 23.3 94.502 A 13.105 13.105 0 0 1 21.434 94.378 Q 19.163 94.05 18 92.852 A 4.359 4.359 0 0 1 17.127 91.461 Q 16.564 90.098 16.437 87.933 A 22.782 22.782 0 0 1 16.4 86.602 Q 16.4 83.502 17.05 78.652 Q 17.548 74.938 18.544 69.085 A 628.03 628.03 0 0 1 19.2 65.302 A 1084.352 1084.352 0 0 0 20.995 54.117 Q 21.679 49.703 22.255 45.699 A 581.485 581.485 0 0 0 23.3 38.102 A 145.996 145.996 0 0 0 23.831 33.237 Q 24.039 30.953 24.129 28.981 A 62.731 62.731 0 0 0 24.2 26.102 A 9.041 9.041 0 0 0 24.069 24.487 Q 23.562 21.706 21.089 21.605 A 4.635 4.635 0 0 0 20.9 21.602 A 6.556 6.556 0 0 0 18.942 21.929 Q 17.209 22.473 15.119 23.919 A 25.283 25.283 0 0 0 14.65 24.252 A 25.425 25.425 0 0 0 12.052 26.446 Q 9.493 28.891 6.611 32.687 A 79.572 79.572 0 0 0 6.6 32.702 A 6.407 6.407 0 0 1 5.789 33.62 Q 5.272 34.095 4.719 34.341 A 2.978 2.978 0 0 1 3.5 34.602 Q 2.1 34.602 1.05 33.252 Q 0 31.902 0 30.202 A 8.498 8.498 0 0 1 0.381 27.722 A 10.159 10.159 0 0 1 0.65 26.952 A 12.625 12.625 0 0 1 1.257 25.651 Q 1.863 24.514 2.8 23.202 A 43.374 43.374 0 0 1 7.865 17.274 A 33.296 33.296 0 0 1 13.5 12.852 A 25.981 25.981 0 0 1 18.939 10.262 A 20.002 20.002 0 0 1 25.3 9.202 Q 30.8 9.202 33.75 12.702 A 11.291 11.291 0 0 1 35.815 16.521 Q 36.354 18.172 36.565 20.18 A 26.099 26.099 0 0 1 36.7 22.902 A 35.904 35.904 0 0 1 36.618 25.252 Q 36.535 26.512 36.368 27.93 A 68.571 68.571 0 0 1 36.2 29.252 A 280.088 280.088 0 0 1 35.956 30.992 Q 35.65 33.127 35.386 34.701 A 89.794 89.794 0 0 1 35.3 35.202 A 201.394 201.394 0 0 1 35.115 36.249 Q 34.879 37.568 34.733 38.25 A 18.691 18.691 0 0 1 34.7 38.402 Q 39.754 23.949 45.908 17.24 A 24.73 24.73 0 0 1 47.5 15.652 A 26.426 26.426 0 0 1 53.86 11.299 A 21.179 21.179 0 0 1 63.1 9.202 A 14.746 14.746 0 0 1 67.759 9.903 A 11.948 11.948 0 0 1 73.35 13.802 Q 76.413 17.559 76.974 23.852 A 33.239 33.239 0 0 1 77.1 26.802 Q 77.1 29.177 76.634 32.381 A 71.646 71.646 0 0 1 76.2 35.002 A 81.638 81.638 0 0 1 79.405 27.316 Q 83.112 19.641 87.587 15.487 A 23.658 23.658 0 0 1 87.9 15.202 Q 94.6 9.202 103.3 9.202 A 17.387 17.387 0 0 1 107.729 9.733 A 11.973 11.973 0 0 1 114.05 13.702 Q 117.8 18.202 117.8 26.302 A 37.734 37.734 0 0 1 117.617 29.869 Q 117.313 33.064 116.5 37.002 Z" id="0" vector-effect="non-scaling-stroke"/><path d="M 135.694 93.73 A 13.778 13.778 0 0 0 140.4 94.502 Q 148.3 94.502 153.5 86.102 A 16.672 16.672 0 0 0 154.521 88.404 A 12.716 12.716 0 0 0 157.65 92.252 A 11.7 11.7 0 0 0 158.083 92.589 A 9.221 9.221 0 0 0 163.7 94.502 A 10.999 10.999 0 0 0 165.745 94.307 Q 167.583 93.96 169.473 92.994 A 20.867 20.867 0 0 0 172.6 91.002 A 44.987 44.987 0 0 0 175.98 88.152 A 54.085 54.085 0 0 0 181.3 82.402 A 6.749 6.749 0 0 0 182.203 81.052 Q 183.2 79.099 183.2 76.202 Q 183.2 74.971 182.943 74.05 A 4.376 4.376 0 0 0 182.45 72.902 A 3.165 3.165 0 0 0 182.15 72.494 A 2.225 2.225 0 0 0 180.4 71.702 A 3.137 3.137 0 0 0 178.54 72.319 A 4.764 4.764 0 0 0 177.7 73.102 A 181.098 181.098 0 0 1 176.204 74.868 Q 172.645 79.014 170.4 81.052 Q 167.7 83.502 165.8 83.502 A 3.041 3.041 0 0 1 165.579 83.494 A 2.394 2.394 0 0 1 163.85 82.602 A 2.866 2.866 0 0 1 163.648 82.328 Q 163.331 81.839 163.197 81.202 A 4.872 4.872 0 0 1 163.1 80.202 A 19.067 19.067 0 0 1 163.103 79.882 Q 163.16 76.452 164.421 69.361 A 245.902 245.902 0 0 1 165.4 64.202 A 306.979 306.979 0 0 0 165.587 63.21 Q 166.9 56.167 166.9 54.202 A 4.851 4.851 0 0 0 166.898 54.06 Q 166.8 50.702 162 50.702 Q 159.7 50.702 157.6 51.102 A 16.337 16.337 0 0 0 157.433 50.429 Q 156.98 48.765 156.35 48.052 A 1.767 1.767 0 0 0 155.969 47.731 Q 155.136 47.202 153.4 47.202 A 21.082 21.082 0 0 0 147.199 48.126 A 24.014 24.014 0 0 0 140.35 51.552 Q 134.2 55.902 130.5 63.052 Q 126.8 70.202 126.8 78.202 A 28.402 28.402 0 0 0 126.802 78.56 Q 126.891 85.613 130.5 90.002 A 11.86 11.86 0 0 0 135.694 93.73 Z M 151.1 74.902 L 154.8 56.502 A 11.707 11.707 0 0 0 148.29 58.69 A 15.265 15.265 0 0 0 147.05 59.652 A 19.709 19.709 0 0 0 142.934 64.63 A 25.263 25.263 0 0 0 141.4 67.702 Q 139.3 72.702 139.3 78.302 A 12.33 12.33 0 0 0 139.399 79.919 Q 139.65 81.807 140.534 82.883 A 3.841 3.841 0 0 0 140.55 82.902 A 4.086 4.086 0 0 0 143.336 84.365 A 5.852 5.852 0 0 0 144 84.402 Q 146.2 84.402 148.2 81.802 Q 150.2 79.202 151.1 74.902 Z" id="1" vector-effect="non-scaling-stroke"/><path d="M 234.65 72.494 A 2.225 2.225 0 0 0 232.9 71.702 A 3.137 3.137 0 0 0 231.04 72.319 A 4.764 4.764 0 0 0 230.2 73.102 A 138.675 138.675 0 0 1 228.668 74.897 Q 226.248 77.682 224.374 79.498 A 30.868 30.868 0 0 1 222.6 81.102 A 11.985 11.985 0 0 1 220.58 82.469 A 8.405 8.405 0 0 1 216.6 83.502 Q 213.7 83.502 211.65 81.852 Q 209.6 80.202 209.2 77.502 A 37.83 37.83 0 0 0 211.908 75.927 Q 216.595 72.925 218.8 69.302 Q 221.6 64.702 221.6 59.202 A 15.524 15.524 0 0 0 221.558 58.052 A 11.855 11.855 0 0 0 218.55 50.802 A 9.826 9.826 0 0 0 214.241 47.963 A 11.934 11.934 0 0 0 210.5 47.402 Q 205.1 47.402 198.9 53.052 A 30.033 30.033 0 0 0 194.558 58.092 Q 192.725 60.72 191.037 64.058 A 77.171 77.171 0 0 0 187.9 71.202 A 201.525 201.525 0 0 1 187.9 71.03 A 185.598 185.598 0 0 1 188.2 60.502 A 212.556 212.556 0 0 0 196.132 51.379 Q 199.699 47.014 202.47 43.042 A 84.279 84.279 0 0 0 207.4 35.152 A 53.297 53.297 0 0 0 211.328 26.13 A 38.593 38.593 0 0 0 213.3 14.202 A 26.56 26.56 0 0 0 213.279 13.144 Q 213.189 10.888 212.71 8.954 A 14.357 14.357 0 0 0 210.45 3.952 A 11.617 11.617 0 0 0 209.614 2.919 A 8.587 8.587 0 0 0 203 0.002 A 12.656 12.656 0 0 0 195.64 2.38 Q 191.585 5.197 188.25 11.352 A 68.055 68.055 0 0 0 186.49 14.839 Q 183.95 20.247 182.005 26.716 A 123.711 123.711 0 0 0 178.95 39.402 Q 175.8 56.102 175.8 71.502 Q 175.8 78.327 176.081 82.677 A 64.105 64.105 0 0 0 176.3 85.302 Q 176.636 88.459 177.401 90.511 A 9.036 9.036 0 0 0 178.25 92.252 A 4.641 4.641 0 0 0 180.984 94.271 A 6.719 6.719 0 0 0 182.8 94.502 A 10.201 10.201 0 0 0 183.787 94.456 Q 186.142 94.227 187.35 92.852 A 5.867 5.867 0 0 0 188.001 91.928 Q 189.054 90.117 189.9 86.502 Q 191.5 80.002 194.3 73.852 A 64.197 64.197 0 0 1 195.097 72.166 Q 196.305 69.705 197.593 67.645 A 34.851 34.851 0 0 1 200.35 63.802 A 22.063 22.063 0 0 1 201.114 62.931 Q 202.776 61.137 204.289 60.405 A 4.611 4.611 0 0 1 206.3 59.902 A 2.26 2.26 0 0 1 207.462 60.206 A 2.621 2.621 0 0 1 208.15 60.802 Q 208.9 61.702 208.9 63.502 A 9.733 9.733 0 0 1 208.886 64.027 A 7.535 7.535 0 0 1 207 68.752 Q 205.679 70.246 203.149 71.621 A 30.346 30.346 0 0 1 200.7 72.802 A 8.804 8.804 0 0 0 199.33 73.524 Q 197.98 74.405 197.323 75.667 A 5.837 5.837 0 0 0 196.7 78.402 A 20.458 20.458 0 0 0 196.852 80.931 A 14.617 14.617 0 0 0 201.4 90.102 A 15.715 15.715 0 0 0 208.447 93.883 A 21.957 21.957 0 0 0 213.8 94.502 A 22.436 22.436 0 0 0 216.009 94.395 A 17.597 17.597 0 0 0 224.7 91.202 A 35.517 35.517 0 0 0 225.347 90.727 Q 229.617 87.515 233.8 82.402 A 6.749 6.749 0 0 0 234.703 81.052 Q 235.7 79.099 235.7 76.202 Q 235.7 74.971 235.443 74.05 A 4.376 4.376 0 0 0 234.95 72.902 A 3.165 3.165 0 0 0 234.65 72.494 Z M 200.9 9.902 A 1.743 1.743 0 0 0 199.856 10.309 Q 198.481 11.35 196.9 15.052 A 52.485 52.485 0 0 0 195.54 18.622 Q 194.107 22.797 192.741 28.566 A 164.874 164.874 0 0 0 192.65 28.952 A 170.538 170.538 0 0 0 190.43 40.191 A 211.625 211.625 0 0 0 189.3 48.002 Q 195.5 40.702 199.55 32.102 A 50.219 50.219 0 0 0 202.018 25.877 Q 203.6 20.877 203.6 16.502 Q 203.6 13.539 203 11.862 A 5.938 5.938 0 0 0 202.9 11.602 A 4.29 4.29 0 0 0 202.519 10.868 Q 202.27 10.49 201.968 10.26 A 1.715 1.715 0 0 0 200.9 9.902 Z" id="2" vector-effect="non-scaling-stroke"/><path d="M 273.95 72.494 A 2.225 2.225 0 0 0 272.2 71.702 A 3.137 3.137 0 0 0 270.34 72.319 A 4.764 4.764 0 0 0 269.5 73.102 Q 265.3 78.202 259.55 81.352 A 34.393 34.393 0 0 1 256.849 82.688 Q 252.715 84.502 249.3 84.502 A 19.888 19.888 0 0 1 248.323 84.478 Q 246.452 84.386 244.934 83.933 A 8.254 8.254 0 0 1 239.8 79.902 Q 247.555 77.996 252.352 75.204 A 20.43 20.43 0 0 0 256.55 72.052 Q 261.5 67.102 261.5 60.202 A 16.681 16.681 0 0 0 261.192 56.914 A 11.46 11.46 0 0 0 258 50.852 Q 254.5 47.402 248.7 47.402 Q 242.2 47.402 237.05 50.902 Q 231.9 54.402 229 60.352 Q 226.1 66.302 226.1 73.202 A 27.897 27.897 0 0 0 226.681 79.046 A 18.867 18.867 0 0 0 231.9 88.802 Q 237.7 94.502 248.2 94.502 Q 255.9 94.502 262.65 90.702 A 53.631 53.631 0 0 0 264.414 89.665 Q 269.899 86.295 273.1 82.402 A 6.749 6.749 0 0 0 274.003 81.052 Q 275 79.099 275 76.202 Q 275 74.971 274.743 74.05 A 4.376 4.376 0 0 0 274.25 72.902 A 3.165 3.165 0 0 0 273.95 72.494 Z M 238.2 71.902 L 238.2 72.102 A 31.232 31.232 0 0 0 242.235 70.87 Q 244.281 70.08 245.904 69.053 A 15.789 15.789 0 0 0 247.5 67.902 A 10.841 10.841 0 0 0 249.436 65.87 A 7.5 7.5 0 0 0 250.9 61.402 A 5.579 5.579 0 0 0 250.753 60.085 A 3.877 3.877 0 0 0 249.85 58.352 A 3.462 3.462 0 0 0 247.752 57.257 A 4.943 4.943 0 0 0 247 57.202 A 6.081 6.081 0 0 0 242.824 58.881 Q 241.706 59.889 240.75 61.502 Q 238.2 65.802 238.2 71.902 Z" id="3" vector-effect="non-scaling-stroke"/><path d="M 297.2 45.202 L 295.1 58.302 A 2168.177 2168.177 0 0 0 294.056 65.352 Q 292.623 75.15 291.664 82.42 A 759.723 759.723 0 0 0 291.6 82.902 A 66.535 66.535 0 0 1 292.744 82.858 Q 294.02 82.819 295.695 82.807 A 222.912 222.912 0 0 1 297.3 82.802 A 31.498 31.498 0 0 1 299.668 82.884 Q 301.921 83.054 303.312 83.579 A 4.929 4.929 0 0 1 304.5 84.202 A 4.53 4.53 0 0 1 306.296 87.166 A 6.968 6.968 0 0 1 306.4 88.402 A 5.578 5.578 0 0 1 304.628 92.544 A 7.332 7.332 0 0 1 304.35 92.802 A 6.757 6.757 0 0 1 301.797 94.179 Q 300.788 94.483 299.578 94.568 A 13.892 13.892 0 0 1 298.6 94.602 Q 296.1 94.602 290.7 94.402 A 619.932 619.932 0 0 0 288.675 94.324 Q 286.13 94.23 284.8 94.208 A 43.353 43.353 0 0 0 284.1 94.202 A 83.91 83.91 0 0 0 277.068 94.512 A 110.763 110.763 0 0 0 270.3 95.302 A 84.46 84.46 0 0 1 268.769 95.52 Q 266.673 95.798 265.623 95.802 A 7.942 7.942 0 0 1 265.6 95.802 A 6.683 6.683 0 0 1 263.809 95.572 A 5.28 5.28 0 0 1 261.9 94.602 A 3.883 3.883 0 0 1 260.5 92.214 A 5.906 5.906 0 0 1 260.4 91.102 A 6.408 6.408 0 0 1 261.08 88.123 Q 261.739 86.845 263.035 85.886 A 8.724 8.724 0 0 1 263.6 85.502 Q 265.932 84.044 269.644 83.596 A 28.836 28.836 0 0 1 272.6 83.402 L 277.3 83.302 L 277.6 81.102 Q 279.81 66.367 280.918 59.605 A 400.712 400.712 0 0 1 281.1 58.502 L 283.3 45.402 Q 285.3 33.802 286.9 21.502 L 278.5 21.602 Q 274.9 21.602 273.55 20.452 A 3.745 3.745 0 0 1 272.285 18.192 A 5.554 5.554 0 0 1 272.2 17.202 A 6.593 6.593 0 0 1 273.23 13.454 Q 275.378 10.239 282 9.902 Q 286.6 9.702 293.2 9.702 L 311.5 9.802 A 8.981 8.981 0 0 1 313.604 10.037 A 6.752 6.752 0 0 1 315.9 11.052 A 5.121 5.121 0 0 1 316.849 11.887 A 3.283 3.283 0 0 1 317.7 14.102 A 8.315 8.315 0 0 1 317.395 16.411 A 6.358 6.358 0 0 1 315.7 19.252 Q 313.892 21.015 310.693 21.184 A 13.149 13.149 0 0 1 310 21.202 Q 304.2 21.202 301.2 21.302 L 299.4 32.102 A 50827.167 50827.167 0 0 0 298.774 35.822 Q 297.624 42.664 297.257 44.859 A 986.452 986.452 0 0 0 297.2 45.202 Z" id="4" vector-effect="non-scaling-stroke"/><path d="M 320.7 56.902 L 316.8 56.902 Q 313.8 56.902 312.75 55.802 Q 311.987 55.002 311.778 53.514 A 8.767 8.767 0 0 1 311.7 52.302 A 10.231 10.231 0 0 1 311.886 50.258 Q 312.528 47.124 315.388 46.752 A 6.292 6.292 0 0 1 316.2 46.702 L 321.9 46.702 Q 323.6 35.702 327.1 26.602 A 59.1 59.1 0 0 1 330.151 19.878 Q 332.592 15.329 335.55 12.102 A 20.38 20.38 0 0 1 338.879 9.139 Q 341.32 7.435 343.927 6.922 A 11.751 11.751 0 0 1 346.2 6.702 Q 350.064 6.702 352.405 9.834 A 10.433 10.433 0 0 1 352.8 10.402 A 14.264 14.264 0 0 1 354.707 15.017 Q 355.139 16.896 355.192 19.073 A 25.393 25.393 0 0 1 355.2 19.702 A 33.828 33.828 0 0 1 345.773 43.199 A 47.53 47.53 0 0 1 342.2 46.702 L 353.4 46.702 A 5.768 5.768 0 0 1 354.218 46.755 Q 355.194 46.896 355.7 47.402 A 1.879 1.879 0 0 1 356.095 48.016 Q 356.4 48.747 356.4 50.002 Q 356.4 56.902 345.1 56.902 L 332.9 56.902 Q 332.747 60.73 332.711 63.268 A 101.939 101.939 0 0 0 332.7 64.702 Q 332.7 75.102 335.15 79.302 A 7.985 7.985 0 0 0 340.865 83.328 A 11.441 11.441 0 0 0 342.9 83.502 Q 347.2 83.502 350.5 80.902 A 35.701 35.701 0 0 0 352.68 79.023 Q 355.039 76.832 357.892 73.571 A 115.889 115.889 0 0 0 358.3 73.102 A 4.764 4.764 0 0 1 359.14 72.319 A 3.137 3.137 0 0 1 361 71.702 A 2.225 2.225 0 0 1 362.75 72.494 A 3.165 3.165 0 0 1 363.05 72.902 A 4.376 4.376 0 0 1 363.543 74.05 Q 363.8 74.971 363.8 76.202 Q 363.8 79.099 362.803 81.052 A 6.749 6.749 0 0 1 361.9 82.402 A 45.062 45.062 0 0 1 355.95 88.508 A 38.566 38.566 0 0 1 352.5 91.102 A 20.322 20.322 0 0 1 342.024 94.472 A 24.839 24.839 0 0 1 340.8 94.502 A 20.157 20.157 0 0 1 330.939 92.231 Q 322.693 87.692 320.899 74.074 A 63.566 63.566 0 0 1 320.4 65.802 Q 320.4 61.402 320.7 56.902 Z M 343.5 16.302 A 1.619 1.619 0 0 0 342.585 16.628 Q 341.581 17.32 340.44 19.484 A 23.496 23.496 0 0 0 340.15 20.052 Q 338.3 23.802 336.65 30.452 Q 335 37.102 333.9 45.202 A 36.677 36.677 0 0 0 339.866 38.705 A 31.376 31.376 0 0 0 342.75 33.752 A 37.252 37.252 0 0 0 344.548 29.151 Q 345.338 26.615 345.586 24.29 A 19.652 19.652 0 0 0 345.7 22.202 Q 345.7 17.648 344.39 16.609 A 1.392 1.392 0 0 0 343.5 16.302 Z" id="5" vector-effect="non-scaling-stroke"/><path d="M 410.1 93.102 L 410.4 91.202 Q 402.5 94.502 394.9 94.502 A 48.975 48.975 0 0 1 384.684 93.481 A 38.164 38.164 0 0 1 375.2 90.152 Q 366.7 85.802 362 77.802 A 33.973 33.973 0 0 1 357.672 64.958 A 43.341 43.341 0 0 1 357.3 59.202 Q 357.3 44.402 362.9 33.052 A 45.114 45.114 0 0 1 371.176 21.242 A 40.462 40.462 0 0 1 378.35 15.452 Q 388.2 9.202 400.4 9.202 Q 412.1 9.202 417.95 14.652 Q 423.8 20.102 423.8 29.102 A 26.357 26.357 0 0 1 423.546 32.88 Q 423.061 36.222 421.65 38.552 A 7.942 7.942 0 0 1 419.866 40.645 Q 418.175 42.01 415.818 42.096 A 8.771 8.771 0 0 1 415.5 42.102 A 9.155 9.155 0 0 1 413.695 41.934 Q 412.579 41.709 411.706 41.185 A 5.331 5.331 0 0 1 411.15 40.802 A 4.222 4.222 0 0 1 409.521 37.701 A 5.975 5.975 0 0 1 409.5 37.202 Q 409.5 36.202 409.9 33.802 Q 410.5 31.002 410.5 29.402 A 11.088 11.088 0 0 0 410.199 26.739 A 7.434 7.434 0 0 0 407.95 22.902 Q 405.593 20.775 400.287 20.615 A 29.317 29.317 0 0 0 399.4 20.602 Q 392.1 20.602 385.85 24.802 A 25.856 25.856 0 0 0 379.292 31.252 A 35.791 35.791 0 0 0 375.8 37.352 Q 372 45.702 372 57.402 A 35.397 35.397 0 0 0 372.705 64.69 Q 374.149 71.551 378.55 75.952 A 21.06 21.06 0 0 0 387.616 81.203 Q 390.888 82.177 394.812 82.42 A 43.409 43.409 0 0 0 397.5 82.502 A 34.348 34.348 0 0 0 406.345 81.294 A 44.478 44.478 0 0 0 411.9 79.402 L 413.3 67.202 L 403.1 67.202 A 9.314 9.314 0 0 1 401.44 67.063 Q 399.82 66.769 398.8 65.852 A 4.017 4.017 0 0 1 397.749 64.269 Q 397.3 63.097 397.3 61.402 Q 397.3 59.061 398.348 57.559 A 4.984 4.984 0 0 1 398.8 57.002 A 4.983 4.983 0 0 1 401.889 55.459 A 7.004 7.004 0 0 1 402.8 55.402 L 421.5 55.402 A 5.474 5.474 0 0 1 423.369 55.71 A 4.797 4.797 0 0 1 425.15 56.852 A 3.996 3.996 0 0 1 426.234 58.909 Q 426.407 59.735 426.325 60.744 A 8.873 8.873 0 0 1 426.3 61.002 A 61.064 61.064 0 0 1 426.138 62.486 Q 425.681 66.32 424.3 75.502 L 423.2 83.102 A 391.083 391.083 0 0 1 430.393 77.828 Q 433.806 75.388 436.917 73.293 A 232.777 232.777 0 0 1 437.8 72.702 A 7.207 7.207 0 0 1 438.583 72.28 Q 439.413 71.902 440.1 71.902 A 2.186 2.186 0 0 1 441.836 72.711 A 3.273 3.273 0 0 1 442.15 73.152 Q 442.9 74.402 442.9 76.302 Q 442.9 77.799 442.604 78.872 A 4.943 4.943 0 0 1 442.2 79.902 Q 441.5 81.202 440 82.202 Q 434.1 86.102 421.2 95.002 Q 418.643 108.572 415.098 118.36 A 76.186 76.186 0 0 1 411.1 127.602 A 32.956 32.956 0 0 1 407.684 132.947 Q 405.476 135.712 402.945 137.311 A 13.86 13.86 0 0 1 395.4 139.502 A 13.461 13.461 0 0 1 391.57 138.982 A 10.533 10.533 0 0 1 387.1 136.352 A 10.575 10.575 0 0 1 384.013 129.945 A 14.662 14.662 0 0 1 383.9 128.102 A 22.583 22.583 0 0 1 385.081 120.995 A 27.337 27.337 0 0 1 386 118.602 A 26.39 26.39 0 0 1 387.875 115.124 Q 390.077 111.636 393.85 107.502 A 82.507 82.507 0 0 1 398.365 102.958 Q 400.787 100.687 403.721 98.223 A 197.758 197.758 0 0 1 410.1 93.102 Z M 396.5 129.802 A 3.001 3.001 0 0 0 398.152 129.24 Q 399.877 128.1 401.797 124.647 A 35.587 35.587 0 0 0 402.2 123.902 A 34.824 34.824 0 0 0 403.912 120.013 Q 406.06 114.317 408 104.902 A 90.792 90.792 0 0 0 403.665 108.842 Q 399.423 112.974 397.125 116.535 A 26.897 26.897 0 0 0 397.05 116.652 Q 393.7 121.902 393.7 125.902 A 7.999 7.999 0 0 0 393.811 127.301 Q 394.248 129.745 396.4 129.8 A 3.914 3.914 0 0 0 396.5 129.802 Z" id="6" vector-effect="non-scaling-stroke"/><path d="M 489.459 64.087 A 2.055 2.055 0 0 0 487.8 63.302 A 4.008 4.008 0 0 0 487.533 63.311 Q 487.028 63.345 486.4 63.502 A 89.607 89.607 0 0 1 483.393 64.235 Q 478.776 65.273 475.2 65.502 A 27.657 27.657 0 0 0 474.853 63.141 A 21.86 21.86 0 0 0 469.75 52.552 A 14.981 14.981 0 0 0 463.338 48.219 A 17.814 17.814 0 0 0 457.5 47.302 Q 451.3 47.302 446.2 50.652 A 21.614 21.614 0 0 0 442.551 53.665 A 24.072 24.072 0 0 0 438.2 59.952 A 27.572 27.572 0 0 0 436.107 65.945 A 34.036 34.036 0 0 0 435.3 73.502 A 28.272 28.272 0 0 0 435.304 73.938 A 24.553 24.553 0 0 0 437.5 83.902 Q 439.7 88.702 443.95 91.602 A 16.069 16.069 0 0 0 449.122 93.906 A 20.705 20.705 0 0 0 454.2 94.502 A 18.053 18.053 0 0 0 460.751 93.307 A 19.822 19.822 0 0 0 466.9 89.452 A 22.918 22.918 0 0 0 471.806 83.14 A 28.513 28.513 0 0 0 474.4 76.002 A 52.306 52.306 0 0 0 478.81 75.635 A 42.89 42.89 0 0 0 487.6 73.602 A 3.589 3.589 0 0 0 489.852 71.568 Q 490.491 70.19 490.5 67.967 A 15.748 15.748 0 0 0 490.5 67.902 A 10.564 10.564 0 0 0 490.484 67.317 Q 490.444 66.591 490.301 65.968 A 5.429 5.429 0 0 0 489.8 64.602 A 3.16 3.16 0 0 0 489.459 64.087 Z M 457.6 57.902 L 457.1 57.902 A 7.373 7.373 0 0 0 451.582 60.346 A 11.395 11.395 0 0 0 450.45 61.752 A 13.286 13.286 0 0 0 448.71 65.48 Q 447.8 68.5 447.8 72.602 A 22.559 22.559 0 0 0 448.005 75.748 Q 448.464 78.996 449.95 81.002 A 8.845 8.845 0 0 0 451.367 82.531 A 5.53 5.53 0 0 0 455 83.902 A 7.088 7.088 0 0 0 460.026 81.839 A 9.727 9.727 0 0 0 460.55 81.302 A 10.806 10.806 0 0 0 462.336 78.53 Q 462.911 77.273 463.3 75.741 A 22.846 22.846 0 0 0 463.7 73.802 Q 460.6 71.702 458.95 68.302 Q 457.3 64.902 457.3 61.102 Q 457.3 59.502 457.6 57.902 Z" id="7" vector-effect="non-scaling-stroke"/><path d="M 536.3 93.102 L 536.6 91.202 Q 528.7 94.502 521.1 94.502 A 48.975 48.975 0 0 1 510.884 93.481 A 38.164 38.164 0 0 1 501.4 90.152 Q 492.9 85.802 488.2 77.802 A 33.973 33.973 0 0 1 483.872 64.958 A 43.341 43.341 0 0 1 483.5 59.202 Q 483.5 44.402 489.1 33.052 A 45.114 45.114 0 0 1 497.376 21.242 A 40.462 40.462 0 0 1 504.55 15.452 Q 514.4 9.202 526.6 9.202 Q 538.3 9.202 544.15 14.652 Q 550 20.102 550 29.102 A 26.357 26.357 0 0 1 549.746 32.88 Q 549.261 36.222 547.85 38.552 A 7.942 7.942 0 0 1 546.066 40.645 Q 544.375 42.01 542.018 42.096 A 8.771 8.771 0 0 1 541.7 42.102 A 9.155 9.155 0 0 1 539.895 41.934 Q 538.779 41.709 537.906 41.185 A 5.331 5.331 0 0 1 537.35 40.802 A 4.222 4.222 0 0 1 535.721 37.701 A 5.975 5.975 0 0 1 535.7 37.202 Q 535.7 36.202 536.1 33.802 Q 536.7 31.002 536.7 29.402 A 11.088 11.088 0 0 0 536.399 26.739 A 7.434 7.434 0 0 0 534.15 22.902 Q 531.793 20.775 526.487 20.615 A 29.317 29.317 0 0 0 525.6 20.602 Q 518.3 20.602 512.05 24.802 A 25.856 25.856 0 0 0 505.492 31.252 A 35.791 35.791 0 0 0 502 37.352 Q 498.2 45.702 498.2 57.402 A 35.397 35.397 0 0 0 498.905 64.69 Q 500.349 71.551 504.75 75.952 A 21.06 21.06 0 0 0 513.816 81.203 Q 517.088 82.177 521.012 82.42 A 43.409 43.409 0 0 0 523.7 82.502 A 34.348 34.348 0 0 0 532.545 81.294 A 44.478 44.478 0 0 0 538.1 79.402 L 539.5 67.202 L 529.3 67.202 A 9.314 9.314 0 0 1 527.64 67.063 Q 526.02 66.769 525 65.852 A 4.017 4.017 0 0 1 523.949 64.269 Q 523.5 63.097 523.5 61.402 Q 523.5 59.061 524.548 57.559 A 4.984 4.984 0 0 1 525 57.002 A 4.983 4.983 0 0 1 528.089 55.459 A 7.004 7.004 0 0 1 529 55.402 L 547.7 55.402 A 5.474 5.474 0 0 1 549.569 55.71 A 4.797 4.797 0 0 1 551.35 56.852 A 3.996 3.996 0 0 1 552.434 58.909 Q 552.607 59.735 552.525 60.744 A 8.873 8.873 0 0 1 552.5 61.002 A 61.064 61.064 0 0 1 552.338 62.486 Q 551.881 66.32 550.5 75.502 L 549.4 83.102 A 391.083 391.083 0 0 1 556.593 77.828 Q 560.006 75.388 563.117 73.293 A 232.777 232.777 0 0 1 564 72.702 A 7.207 7.207 0 0 1 564.783 72.28 Q 565.613 71.902 566.3 71.902 A 2.186 2.186 0 0 1 568.036 72.711 A 3.273 3.273 0 0 1 568.35 73.152 Q 569.1 74.402 569.1 76.302 Q 569.1 77.799 568.804 78.872 A 4.943 4.943 0 0 1 568.4 79.902 Q 567.7 81.202 566.2 82.202 Q 560.3 86.102 547.4 95.002 Q 544.843 108.572 541.298 118.36 A 76.186 76.186 0 0 1 537.3 127.602 A 32.956 32.956 0 0 1 533.884 132.947 Q 531.676 135.712 529.145 137.311 A 13.86 13.86 0 0 1 521.6 139.502 A 13.461 13.461 0 0 1 517.77 138.982 A 10.533 10.533 0 0 1 513.3 136.352 A 10.575 10.575 0 0 1 510.213 129.945 A 14.662 14.662 0 0 1 510.1 128.102 A 22.583 22.583 0 0 1 511.281 120.995 A 27.337 27.337 0 0 1 512.2 118.602 A 26.39 26.39 0 0 1 514.075 115.124 Q 516.277 111.636 520.05 107.502 A 82.507 82.507 0 0 1 524.565 102.958 Q 526.987 100.687 529.921 98.223 A 197.758 197.758 0 0 1 536.3 93.102 Z M 522.7 129.802 A 3.001 3.001 0 0 0 524.352 129.24 Q 526.077 128.1 527.997 124.647 A 35.587 35.587 0 0 0 528.4 123.902 A 34.824 34.824 0 0 0 530.112 120.013 Q 532.26 114.317 534.2 104.902 A 90.792 90.792 0 0 0 529.865 108.842 Q 525.623 112.974 523.325 116.535 A 26.897 26.897 0 0 0 523.25 116.652 Q 519.9 121.902 519.9 125.902 A 7.999 7.999 0 0 0 520.011 127.301 Q 520.448 129.745 522.6 129.8 A 3.914 3.914 0 0 0 522.7 129.802 Z" id="8" vector-effect="non-scaling-stroke"/><path d="M 615.659 64.087 A 2.055 2.055 0 0 0 614 63.302 A 4.008 4.008 0 0 0 613.733 63.311 Q 613.228 63.345 612.6 63.502 A 89.607 89.607 0 0 1 609.593 64.235 Q 604.976 65.273 601.4 65.502 A 27.657 27.657 0 0 0 601.053 63.141 A 21.86 21.86 0 0 0 595.95 52.552 A 14.981 14.981 0 0 0 589.538 48.219 A 17.814 17.814 0 0 0 583.7 47.302 Q 577.5 47.302 572.4 50.652 A 21.614 21.614 0 0 0 568.751 53.665 A 24.072 24.072 0 0 0 564.4 59.952 A 27.572 27.572 0 0 0 562.307 65.945 A 34.036 34.036 0 0 0 561.5 73.502 A 28.272 28.272 0 0 0 561.504 73.938 A 24.553 24.553 0 0 0 563.7 83.902 Q 565.9 88.702 570.15 91.602 A 16.069 16.069 0 0 0 575.322 93.906 A 20.705 20.705 0 0 0 580.4 94.502 A 18.053 18.053 0 0 0 586.951 93.307 A 19.822 19.822 0 0 0 593.1 89.452 A 22.918 22.918 0 0 0 598.006 83.14 A 28.513 28.513 0 0 0 600.6 76.002 A 52.306 52.306 0 0 0 605.01 75.635 A 42.89 42.89 0 0 0 613.8 73.602 A 3.589 3.589 0 0 0 616.052 71.568 Q 616.691 70.19 616.7 67.967 A 15.748 15.748 0 0 0 616.7 67.902 A 10.564 10.564 0 0 0 616.684 67.317 Q 616.644 66.591 616.501 65.968 A 5.429 5.429 0 0 0 616 64.602 A 3.16 3.16 0 0 0 615.659 64.087 Z M 583.8 57.902 L 583.3 57.902 A 7.373 7.373 0 0 0 577.782 60.346 A 11.395 11.395 0 0 0 576.65 61.752 A 13.286 13.286 0 0 0 574.91 65.48 Q 574 68.5 574 72.602 A 22.559 22.559 0 0 0 574.205 75.748 Q 574.664 78.996 576.15 81.002 A 8.845 8.845 0 0 0 577.567 82.531 A 5.53 5.53 0 0 0 581.2 83.902 A 7.088 7.088 0 0 0 586.226 81.839 A 9.727 9.727 0 0 0 586.75 81.302 A 10.806 10.806 0 0 0 588.536 78.53 Q 589.111 77.273 589.5 75.741 A 22.846 22.846 0 0 0 589.9 73.802 Q 586.8 71.702 585.15 68.302 Q 583.5 64.902 583.5 61.102 Q 583.5 59.502 583.8 57.902 Z" id="9" vector-effect="non-scaling-stroke"/></g></svg>